<svg xmlns="http://www.w3.org/2000/svg" width="512" height="512" viewBox="0 0 512 512">
  <defs>
    <linearGradient id="grad" x1="0%" y1="0%" x2="100%" y2="100%">
      <stop offset="0%" style="stop-color:#667eea;stop-opacity:1" />
      <stop offset="100%" style="stop-color:#764ba2;stop-opacity:1" />
    </linearGradient>
  </defs>
  <rect width="512" height="512" rx="100" fill="url(#grad)"/>
  <path fill="#fff" d="M256 120c-75 0-136 61-136 136s61 136 136 136 136-61 136-136-61-136-136-136zm0 40c53 0 96 43 96 96s-43 96-96 96-96-43-96-96 43-96 96-96zm0 30c-36 0-66 30-66 66s30 66 66 66 66-30 66-66-30-66-66-66zm0 20c25 0 46 21 46 46s-21 46-46 46-46-21-46-46 21-46 46-46z"/>
  <circle fill="#2ecc71" cx="380" cy="380" r="50"/>
  <path fill="#fff" d="M380 350c-17 0-30 13-30 30s13 30 30 30 30-13 30-30-13-30-30-30zm-12 25l8 8 16-16 6 6-22 22-14-14z"/>
</svg>
